<?xml version="1.0" encoding="UTF-8"?>
<svg id="Layer_2" data-name="Layer 2" xmlns="http://www.w3.org/2000/svg" width="666.236" height="682.472" viewBox="0 0 666.236 682.472">
  <g id="Layer_1-2" data-name="Layer 1">
    <g>
      <path d="M320.32.33c268.796-11.74,433.711,292.565,296.622,519.622-131.364,217.575-438.029,216.344-568.224-1.609C-81.872,299.73,64.042,11.523,320.32.33ZM314.531,223.04c-16.565,1.927-33.145-5.445-34.993-23.517-.655-6.409,1.578-12.162-3.162-17.838-8.548-10.238-21.114.02-28.324,6.377-10.441,9.206-21.517,24.205-28.942,36.058-3.572,5.702-14.566,23.641-15.896,29.099-1.895,7.776,1.18,12.012,6.982,16.645,18.994,15.168,47.717,31.371,68.808,45.192,40.427,26.491,80.997,56.741,128.099,69.901,8.448,2.36,26.043,7.619,33.869,5.023,7.653-2.538,14.257-17.137,15.295-24.704,3.171-23.128-13.551-28.094-27.756-40.727-25.225-22.431-43.99-54.437-60.158-83.842-9.066-16.488-17.004-33.582-25.773-50.225-5.859-5.436-19.211,4.113-23.029,9.079-5.655,7.357-5.358,14.531-5.021,23.479ZM202.782,310.279c-2.375,2.049-1.612,6.989,2.272,7.727,4.23.804,33.72.806,37.944,0,4.966-.948,5.388-7.915-1.039-8.904-7.072-1.089-25.385-.691-32.967-.105-1.459.113-5.3.496-6.21,1.282ZM285.254,340.294c-3.466-3.626-9.811-.654-14.188-2.304-24.003,2.16-52.625-2.732-76.059.026-8.529,1.004-8.065,9.27,0,10.037,27.524-1.793,57.884,2.322,85.061.022,4.7-.398,9.265-3.514,5.186-7.782ZM322.281,375.796c1.776-1.772,1.758-6.05-.758-7.263l-139.555-.555c-6.863.821-5.198,10.293,2.015,9.098,43.065-2.798,90.546,3.583,133.085,0,1.559-.131,4.098-.167,5.213-1.28ZM114.329,430.285c-11.478.9-21.561,7.076-18.59,20.041,2.872,12.53,28.381,9.882,30.611,17.427,2.599,8.796-11.288,8.858-16.871,7.829-5.334-.983-11.462-7.554-14.194-1.283-2.29,5.256.874,5.744,4.985,7.491,12.864,5.466,37.569,4.099,36.309-14.303-1.15-16.791-27.343-12.874-30.563-19.447-4.21-8.595,9.405-9.572,14.898-8.893,2.92.361,7.711,2.915,9.154,2.896,2.142-.027,5.472-5.763,3.487-7.513-2.961-2.61-15.079-4.571-19.226-4.246ZM405.468,434.092c-1.255-1.425-16.571-4.234-19.404-4.077-17.794.984-28.328,20.14-10.533,28.515,4.592,2.161,30.91,5.656,20.934,14.951-9.038,8.421-22.979-3.2-27.294-2.527-1.237.193-3.507,6.075-2.44,7.891,1.752,2.981,16.593,6.265,20.295,6.269,12.722.016,28.361-11.332,18.507-24.587-5.934-7.983-28.784-7.485-28.982-14.965-.257-9.723,21.356-6.066,26.869-3.612.452-1.671,3.168-6.587,2.047-7.859ZM524.971,457.475c0-15.441-12.517-27.958-27.958-27.958s-27.958,12.517-27.958,27.958,12.517,27.958,27.958,27.958,27.958-12.517,27.958-27.958ZM183.526,465.035c-10.09-10.351-18.925-22.164-28.005-33.495l-8.995-.505v53h10v-35l28.429,34.071c2.508,1.687,5.721.752,8.571.929v-53h-10v34ZM246.526,431.035h-40v53h39.5c2.084,0,1.501-7.333,1.5-9h-31v-14h26v-9h-26v-12h30v-9ZM308.522,484.03l-23.483-52.008c-2.257-2.009-8.263-.729-11.403-.872l-23.105,52.88c14.613,2.688,10.079-5.119,14.89-11.376,1.301-1.692,23.457.034,27.494-.682,3.622,8.978,4.125,14.096,15.608,12.058ZM325.526,431.035h-10v53l10.005.005c-1.004-9.79-.096-16.544,8.483-22.005l16.941,21.07c3.118,2.046,8.848.454,12.566.924.459-1.745-.735-2.001-1.491-2.999-3.169-4.187-20.573-23.265-20.462-26.503.146-4.237,15.193-16.223,18.464-20.485.77-1.003,1.94-1.268,1.489-3.001l-10.977.513-25.018,25.482v-26ZM427.526,468.035h19.5c2.21,0,9.303-5.047,11.018-6.982,7.209-8.138,5.014-21.182-4.18-26.856-1.26-.777-6.828-3.162-7.838-3.162h-28.5v53h10v-16ZM573.526,431.035h-45v9h17v44h10v-44h18v-9Z" fill="#3c3c3b"/>
      <path d="M183.526,465.035v-34h10v53c-2.85-.177-6.063.758-8.571-.929l-28.429-34.071v35h-10v-53l8.995.505c9.08,11.331,17.915,23.145,28.005,33.495Z" fill="#fefefe"/>
      <path d="M524.971,457.475c0,15.441-12.517,27.958-27.958,27.958s-27.958-12.517-27.958-27.958,12.517-27.958,27.958-27.958,27.958,12.517,27.958,27.958ZM484.874,471.685c8.833,8.143,27.126,4.135,29.42-8.383,2.525-13.776-4.21-25.377-19.245-24.298-16.165,1.16-20.895,22.798-10.175,32.68Z" fill="#fefefe"/>
      <path d="M246.526,431.035v9h-30v12h26v9h-26v14h31c0,1.667.584,9-1.5,9h-39.5v-53h40Z" fill="#fefefe"/>
      <path d="M325.526,431.035v26l25.018-25.482,10.977-.513c.451,1.733-.719,1.999-1.489,3.001-3.271,4.263-18.318,16.248-18.464,20.485-.111,3.239,17.292,22.317,20.462,26.503.756.999,1.95,1.255,1.491,2.999-3.718-.47-9.448,1.123-12.566-.924l-16.941-21.07c-8.579,5.46-9.487,12.215-8.483,22.005l-10.005-.005v-53h10Z" fill="#fefefe"/>
      <path d="M308.522,484.03c-11.483,2.037-11.986-3.081-15.608-12.058-4.036.716-26.193-1.01-27.494.682-4.811,6.257-.278,14.065-14.89,11.376l23.105-52.88c3.14.143,9.146-1.137,11.403.872l23.483,52.008ZM270.526,464.035h19c-3.004-6.853-5.333-14.245-8.555-20.991-.558-1.169.149-2.45-1.935-2.016-.535,3.469-10.057,21.436-8.51,23.007Z" fill="#fefefe"/>
      <path d="M427.526,468.035v16h-10v-53h28.5c1.01,0,6.578,2.385,7.838,3.162,9.195,5.673,11.389,18.718,4.18,26.856-1.715,1.935-8.808,6.982-11.018,6.982h-19.5ZM427.526,460.035h14.5c8.531,0,12.764-10.273,7.983-16.984-3.272-4.592-17.005-3.707-22.483-4.016v21Z" fill="#fefefe"/>
      <path d="M114.329,430.285c4.147-.325,16.265,1.636,19.226,4.246,1.985,1.75-1.345,7.486-3.487,7.513-1.443.018-6.234-2.535-9.154-2.896-5.493-.679-19.108.298-14.898,8.893,3.22,6.573,29.413,2.657,30.563,19.447,1.26,18.401-23.446,19.769-36.309,14.303-4.111-1.747-7.275-2.236-4.985-7.491,2.732-6.271,8.86.299,14.194,1.283,5.583,1.03,19.471.968,16.871-7.829-2.23-7.545-27.739-4.896-30.611-17.427-2.971-12.965,7.112-19.142,18.59-20.041Z" fill="#fefefe"/>
      <path d="M405.468,434.092c1.12,1.272-1.595,6.189-2.047,7.859-5.513-2.454-27.125-6.112-26.869,3.612.198,7.479,23.048,6.982,28.982,14.965,9.853,13.255-5.785,24.603-18.507,24.587-3.702-.005-18.543-3.288-20.295-6.269-1.067-1.816,1.202-7.698,2.44-7.891,4.315-.673,18.256,10.949,27.294,2.527,9.975-9.295-16.342-12.79-20.934-14.951-17.795-8.375-7.261-27.531,10.533-28.515,2.833-.157,18.149,2.652,19.404,4.077Z" fill="#fefefe"/>
      <polygon points="573.526 431.035 573.526 440.035 555.526 440.035 555.526 484.035 545.526 484.035 545.526 440.035 528.526 440.035 528.526 431.035 573.526 431.035" fill="#fefefe"/>
      <path d="M484.874,471.685c-10.719-9.882-5.989-31.52,10.175-32.68,15.035-1.079,21.77,10.522,19.245,24.298-2.294,12.517-20.587,16.525-29.42,8.383Z" fill="#3c3c3b"/>
      <path d="M270.526,464.035c-1.547-1.57,7.975-19.538,8.51-23.007,2.084-.434,1.377.847,1.935,2.016,3.222,6.746,5.551,14.138,8.555,20.991h-19Z" fill="#3c3c3b"/>
      <path d="M427.526,460.035v-21c5.479.309,19.211-.576,22.483,4.016,4.781,6.711.548,16.984-7.983,16.984h-14.5Z" fill="#3c3c3b"/>
      <g>
        <path d="M314.531,223.04c-.337-8.948-.634-16.122,5.021-23.479,3.817-4.966,17.17-14.515,23.029-9.079,8.769,16.644,16.707,33.737,25.773,50.225,16.168,29.405,34.933,61.41,60.158,83.842,14.205,12.632,30.927,17.599,27.756,40.727-1.037,7.567-7.642,22.166-15.295,24.704-7.826,2.596-25.421-2.663-33.869-5.023-47.102-13.16-87.672-43.41-128.099-69.901-21.091-13.821-49.814-30.023-68.808-45.192-5.802-4.633-8.877-8.869-6.982-16.645,1.33-5.458,12.324-23.397,15.896-29.099,7.425-11.853,18.502-26.851,28.942-36.058,7.209-6.357,19.776-16.615,28.324-6.377,4.739,5.676,2.506,11.43,3.162,17.838,1.848,18.072,18.428,25.445,34.993,23.517ZM269.433,186.125c-3.815-2.606-18.45,10.325-19.942,14.411,2.893,4.416,6.82,7.806,9.849,12.186,7.814,11.298,11.99,24.494,12.181,38.32,4.069.257,8.471-.393,12.489.01,34.521,3.459,44.601,33.46,69.605,51.395,14.237,10.212,28.883,13.601,44.905,4.571l-10.624-16.065c-4.346,1.423-19.274,10.441-18.94.568.23-6.801,11.369-6.135,12.543-7.519,2.041-2.409-5.724-10.04-6.053-12.917-5.346.521-17.127,10.449-20.449,2.909-2.862-6.496,10.569-8.605,14.57-10.494.578-3.715-5.15-9.567-6.13-13.407-4.722.321-17.254,11.347-20.41,4.948-4.785-9.703,12.3-8.754,13.441-12.595.728-2.449-4.762-5.854-6.886-6.966-18.412-9.633-41.24,3.351-62.361-8.639-8.991-5.104-15.4-13.956-16.587-24.413-.346-3.046.558-15.102-1.201-16.303ZM348.519,225.032c.951-1.052-10.782-24.804-11.973-25.573-3.048-1.967-12.492,7.529-13.041,12.052-1.632,13.453,1.365,9.37,10.393,10.651,4.901.695,9.79,1.856,14.62,2.869ZM221.58,239.948l36.29,23.263c1.118.471.994,1.416,2.136-.188,3.545-4.98,1.839-21.255.231-27.2-2.846-10.527-9.026-20.661-17.241-27.767l-9.693,11.258c-1.801,2.531-12.648,19.311-11.724,20.635ZM215.677,248.173c-1.359.792-6.676,11.75-1.633,12.851,33.508,21.684,66.33,44.543,99.954,66.039,30.762,19.667,59.252,39.194,95.106,48.894,6.273,1.697,24.113,6.944,29.407,4.562,1.783-.803,6.416-7.592,4.042-9.011-1.515-.906-14.878-2.851-18.239-3.761-71.204-19.283-135.891-77.368-198.873-115.127-1.99-1.193-7.991-5.481-9.764-4.447ZM447.52,363.032c2.314-15.539-13.481-21.345-23.007-29.484-4.452-3.803-15.443-17.29-19.016-19.065-1.538-.764-13.109,5.908-17.583,6.442-55.437,6.617-66.411-67.059-113.824-60.788-5.631.745-2.984,4.914-6.446,8.592l.317,1.321c57.482,34.823,110.54,83.159,179.559,92.983Z" fill="#cbaf7f"/>
        <path d="M322.281,375.796c-1.115,1.112-3.654,1.148-5.213,1.28-42.539,3.583-90.021-2.798-133.085,0-7.213,1.195-8.878-8.277-2.015-9.098l139.555.555c2.515,1.213,2.534,5.491.758,7.263Z" fill="#cbaf7f"/>
        <path d="M285.254,340.294c4.08,4.268-.486,7.384-5.186,7.782-27.177,2.3-57.537-1.815-85.061-.022-8.065-.767-8.529-9.033,0-10.037,23.435-2.758,52.056,2.133,76.059-.026,4.376,1.649,10.722-1.323,14.188,2.304Z" fill="#cbaf7f"/>
        <path d="M202.782,310.279c.91-.785,4.751-1.169,6.21-1.282,7.581-.586,25.895-.984,32.967.105,6.427.99,6.005,7.956,1.039,8.904-4.223.806-33.713.804-37.944,0-3.884-.739-4.647-5.678-2.272-7.727Z" fill="#cbaf7f"/>
        <path d="M269.433,186.125c1.759,1.201.855,13.257,1.201,16.303,1.187,10.457,7.596,19.309,16.587,24.413,21.121,11.99,43.949-.995,62.361,8.639,2.124,1.111,7.614,4.516,6.886,6.966-1.141,3.841-18.227,2.892-13.441,12.595,3.156,6.4,15.688-4.627,20.41-4.948.98,3.84,6.708,9.692,6.13,13.407-4.001,1.889-17.432,3.997-14.57,10.494,3.322,7.54,15.103-2.388,20.449-2.909.329,2.877,8.094,10.508,6.053,12.917-1.173,1.385-12.312.719-12.543,7.519-.334,9.873,14.594.855,18.94-.568l10.624,16.065c-16.022,9.031-30.668,5.641-44.905-4.571-25.005-17.935-35.085-47.936-69.605-51.395-4.019-.403-8.42.248-12.489-.01-.191-13.826-4.367-27.022-12.181-38.32-3.029-4.38-6.956-7.77-9.849-12.186,1.493-4.086,16.127-17.017,19.942-14.411Z" fill="#3c3c3b"/>
        <path d="M447.52,363.032c-69.019-9.824-122.077-58.16-179.559-92.983l-.317-1.321c3.462-3.678.816-7.847,6.446-8.592,47.413-6.271,58.387,67.405,113.824,60.788,4.473-.534,16.045-7.205,17.583-6.442,3.573,1.775,14.565,15.261,19.016,19.065,9.526,8.139,25.32,13.945,23.007,29.484Z" fill="#3c3c3b"/>
        <path d="M215.677,248.173c1.773-1.034,7.774,3.254,9.764,4.447,62.982,37.76,127.669,95.844,198.873,115.127,3.361.91,16.724,2.856,18.239,3.761,2.374,1.419-2.259,8.208-4.042,9.011-5.294,2.382-23.134-2.865-29.407-4.562-35.854-9.7-64.344-29.227-95.106-48.894-33.623-21.496-66.446-44.355-99.954-66.039-5.044-1.101.273-12.059,1.633-12.851Z" fill="#3c3c3b"/>
        <path d="M221.58,239.948c-.924-1.324,9.923-18.104,11.724-20.635l9.693-11.258c8.215,7.106,14.395,17.24,17.241,27.767,1.607,5.945,3.313,22.22-.231,27.2-1.142,1.605-1.018.66-2.136.188l-36.29-23.263Z" fill="#3c3c3b"/>
        <path d="M348.519,225.032c-4.831-1.013-9.72-2.174-14.62-2.869-9.029-1.281-12.026,2.802-10.393-10.651.549-4.524,9.993-14.019,13.041-12.052,1.191.769,12.924,24.521,11.973,25.573Z" fill="#3c3c3b"/>
      </g>
    </g>
  </g>
</svg>