<?xml version="1.0" encoding="UTF-8"?>
<svg id="Layer_2" data-name="Layer 2" xmlns="http://www.w3.org/2000/svg" width="659.898" height="677.196" viewBox="0 0 659.898 677.196">
  <g id="Layer_1-2" data-name="Layer 1">
    <g>
      <path d="M321.841.168c251.638-7.937,411.549,266.514,304.063,489.063-117.174,242.61-452.738,252.822-583.029,16.314C-77.819,286.455,69.291,8.134,321.841.168ZM272.739,179.189c-5.454-4.621-10.587-3.53-16.374-.496-17.863,9.365-40.182,43.566-49.733,61.267-4.675,8.663-9.691,17.165-1.989,25.818,39.284,25.573,77.826,52.534,117.488,77.512,29.885,18.82,56.718,34.531,91.902,42.098,17.967,3.864,27.143,7.392,35.207-12.82,12.192-30.561-10.335-36.893-28.666-53.72-9.683-8.889-18.749-20.882-26.342-31.658-21.472-30.475-37.761-65.176-54.67-98.329-17.31-3.816-33.577,15.954-27.519,33.008-12.068.197-23.665-.804-30.83-11.66-6.623-10.035-.95-24.643-8.474-31.019ZM243.796,315.622c2.476-2.88.821-7.946-3.274-8.723-5.301-1.006-31.149-.747-36.919.068-6.267.885-6.688,9.089.927,9.907,8.617.926,25.223.686,34.059.042,1.46-.106,4.277-.211,5.208-1.293ZM284.146,335.815l-97.205.018.002,10.1,97.205-.018-.002-10.1ZM176.294,373.623c.942,1.082,3.744,1.186,5.21,1.293,43.625,3.188,91.058-2.509,135.088.004,7.082-.681,5.354-9.547-.994-10.098l-137.553.546c-2.534,1.224-3.57,6.165-1.751,8.255ZM132.918,431c-1.606-2.555-15.916-4.34-19.359-4.106-12.744.869-26.223,11.933-16.537,24.504,5.987,7.771,28.578,5.328,28.924,14.981.319,8.901-17.581,5.778-22.704,3.799-2.901-1.121-4.155-3.665-7.15-3.268-4.697,8.394-2.486,9.665,6.154,12.265,12.398,3.731,34.428,2.505,33.889-14.809-.504-16.191-27.677-13.11-30.564-19.51-4.271-9.468,8.813-9.573,14.717-8.72,4.078.589,6.961,2.769,10.749,3.74-.397-2.465,3.192-6.79,1.881-8.877ZM399.955,438.783c.268-.193,2.06-5.883,1.96-6.306-.718-3.04-12.435-5.399-15.385-5.587-11.111-.711-25.165,5.076-23.267,18.225,2.192,15.185,28.572,11.886,30.598,18.455,3.115,10.096-12.621,9.224-18.826,7.815-1.905-.433-9.173-5.096-9.973-4.509-7.878,12.618,12.916,14.639,21.524,14.029,17.803-1.262,26.344-19.987,9.15-28.221-5.849-2.801-21.359-3.569-21.787-10.312-.819-12.899,24.789-2.714,26.006-3.59ZM520.355,453.955c0-15.331-12.429-27.76-27.76-27.76s-27.76,12.429-27.76,27.76,12.429,27.76,27.76,27.76,27.76-12.429,27.76-27.76ZM145.047,427.874v52h10v-34l27.429,33.071c2.713,1.777,6.43.68,9.571.929v-52h-10v34c-8.763-8.479-15.31-19.065-23.453-28.047-1.065-1.175-2.643-1.59-3.531-2.504-1.042-1.073-.818-2.967-1.16-3.29-.81-.767-7.035.202-8.856-.159ZM244.047,427.874h-39v52h40v-8h-30v-14l26.005-.995c.094-1.615.416-8.005-1.505-8.005h-24.5l.007-12.996c6.062.557,22.176,2.553,27.353.857,2.785-.913,1.345-6.412,1.64-8.86ZM306.042,479.869l-23.465-51.025c-1.885-1.935-8.502-.766-11.394-.835l-22.133,51.86c2.282-.463,8.327.766,9.833-.163.828-.511,3.192-9.038,4.328-10.663,4.897.713,10.978-1.201,15.336-1.169,1.373.01,11.017,1.185,11.514,1.485,1.706,1.029,4.419,9.898,5.144,10.351,1.53.957,8.43-.339,10.836.158ZM322.047,427.874c-1.874.071-10-.694-10,1.5v50.5l11.005.003c-1.388-8.8-1.409-17.947,8.418-21.075l16.568,20.582,11.005.486c.312-1.569-.174-2.302-.957-3.534-2.672-4.202-19.677-22.616-19.895-25.136,2.83-3.834,6.159-7.801,9.343-11.339,1.229-1.366,11.835-10.802,10.509-11.981l-10.977.513c-7.663,7.007-14.004,15.355-21.482,22.507-1.086,1.039-1.773,2.32-3.536,1.975v-25ZM442.547,427.874c-7.221-1.129-20.041,0-28,0-1.095,0-1.433,2.442-1.551,3.449-1.806,15.39,2.503,32.911,1.046,48.556l10.005-.005v-15h15.5c.646,0,6.969-2.275,8.192-2.804,16.665-7.208,12.38-31.448-5.192-34.196ZM568.047,427.874h-45c0,1.667-.584,9,1.5,9h16.5v43h10v-43h17v-9Z" fill="#fdfdfd"/>
      <g>
        <g>
          <path d="M176.294,373.623c-1.819-2.09-.783-7.031,1.751-8.255l137.553-.546c6.349.551,8.076,9.417.994,10.098-44.03-2.513-91.464,3.184-135.088-.004-1.466-.107-4.269-.211-5.21-1.293Z" fill="#4a4a4a"/>
          <rect x="186.942" y="335.824" width="97.205" height="10.1" fill="#4a4a4a"/>
          <path d="M243.796,315.622c-.931,1.083-3.748,1.187-5.208,1.293-8.836.644-25.442.884-34.059-.042-7.615-.818-7.194-9.021-.927-9.907,5.77-.815,31.618-1.074,36.919-.068,4.096.777,5.75,5.843,3.274,8.723Z" fill="#4a4a4a"/>
          <g>
            <path d="M272.739,179.189c7.525,6.375,1.852,20.984,8.474,31.019,7.164,10.856,18.762,11.857,30.83,11.66-6.058-17.054,10.209-36.823,27.519-33.008,16.909,33.153,33.198,67.854,54.67,98.329,7.593,10.776,16.658,22.769,26.342,31.658,18.331,16.827,40.858,23.159,28.666,53.72-8.064,20.213-17.24,16.685-35.207,12.82-35.184-7.567-62.018-23.277-91.902-42.098-39.662-24.978-78.204-51.939-117.488-77.512-7.702-8.654-2.685-17.155,1.989-25.818,9.551-17.701,31.87-51.902,49.733-61.267,5.787-3.034,10.919-4.125,16.374.496ZM353.044,241.86c.913-1.262-3.965-5.675-5.062-6.421-13.239-9.01-34.926-1.798-50.992-5.008-14.173-2.832-26.898-13.162-28.858-28.142-1.071-8.182,4-22.018-9.419-14.25-1.832,1.06-11.157,9.006-11.56,10.535-.366,1.391.157,1.835.835,2.845,2.528,3.762,7.583,7.471,10.688,12.326,6.48,10.134,10.378,23.099,10.376,35.123,7.079,1.02,14.176.704,21.197,2.303,37.764,8.601,53.656,71.551,99.028,56.436.921-1.341,6.52-2.297,5.761-4.22-.326-.828-10.837-13.194-11.701-13.408-3.184-.789-12.44,8.49-16.383,3.489-5.281-6.698,5.89-10.88,11.094-11.604,1.504-1.738-5.773-9.35-6.145-11.862-6.091-.664-14.772,9.517-19.336,3.833-5.329-6.637,8.487-11.173,13.482-11.971-.594-1.723-4.578-11.52-5.124-11.866-2.888-1.835-14.201,6.375-18.399,5.931-.619-.065-4.092-3.059-4.194-3.305-3.117-7.487,10.051-8.442,14.711-10.764ZM342.382,217.558c-.658-1.365-.442-3.01-1.115-4.386-1.208-2.472-7.095-14.805-8.823-15.211-4.6-1.083-12.286,10.836-12.44,15.443-.43,12.851,9.32,7.535,18.462,8.551,2.6.289,4.833,2.199,7.576,1.914.843-2.69-3.289-5.541-3.66-6.31ZM258.041,262.869c2.76-10.444,2.217-20.235-.941-30.549-1.444-4.718-11.511-25.899-17.375-24.356-2.169.571-21.789,29.398-20.678,30.896l38.993,24.01ZM439.052,368.877c-36.156-4.448-68.444-21.705-98.921-40.588-41.688-25.83-81.811-54.455-123.124-80.891-2.508-2.363-5.437,3.557-6.203,5.746-1.654,4.729-.295,4.8,2.919,7.553,64.471,34.97,135.295,105.479,209.115,116.886,8.932,1.38,15.208,2.84,16.214-8.705ZM444.041,360.869c.453-16.85-17.422-23.698-28.009-33.481-3.213-2.969-10.616-12.657-13.272-13.779-3.744-1.581-10.901,3.673-15.666,4.813-51.738,12.376-66.933-61.489-111.53-59.534-7.553.331-9.366,1.835-9.347,9.808,57.073,34.416,109.489,82.019,177.824,92.174Z" fill="#4a4a4a"/>
            <path d="M353.044,241.86c-4.66,2.323-17.828,3.277-14.711,10.764.103.246,3.575,3.24,4.194,3.305,4.198.444,15.51-7.766,18.399-5.931.545.347,4.53,10.143,5.124,11.866-4.994.798-18.811,5.334-13.482,11.971,4.564,5.684,13.244-4.497,19.336-3.833.372,2.512,7.649,10.124,6.145,11.862-5.204.724-16.375,4.906-11.094,11.604,3.943,5.001,13.199-4.277,16.383-3.489.864.214,11.375,12.581,11.701,13.408.758,1.924-4.84,2.879-5.761,4.22-45.372,15.115-61.264-47.835-99.028-56.436-7.021-1.599-14.118-1.283-21.197-2.303.002-12.025-3.896-24.99-10.376-35.123-3.105-4.855-8.16-8.564-10.688-12.326-.678-1.009-1.201-1.454-.835-2.845.402-1.529,9.728-9.475,11.56-10.535,13.418-7.768,8.348,6.068,9.419,14.25,1.961,14.98,14.686,25.31,28.858,28.142,16.066,3.21,37.753-4.001,50.992,5.008,1.097.746,5.975,5.159,5.062,6.421Z" fill="#fdfdfd"/>
            <path d="M444.041,360.869c-68.336-10.154-120.751-57.757-177.824-92.174-.019-7.973,1.794-9.476,9.347-9.808,44.597-1.956,59.793,71.909,111.53,59.534,4.765-1.14,11.923-6.394,15.666-4.813,2.656,1.122,10.059,10.81,13.272,13.779,10.587,9.783,28.462,16.631,28.009,33.481Z" fill="#fdfdfd"/>
            <path d="M439.052,368.877c-1.005,11.545-7.282,10.085-16.214,8.705-73.821-11.407-144.644-81.916-209.115-116.886-3.214-2.753-4.573-2.823-2.919-7.553.766-2.189,3.695-8.109,6.203-5.746,41.313,26.436,81.437,55.061,123.124,80.891,30.477,18.883,62.765,36.141,98.921,40.588Z" fill="#fdfdfd"/>
            <path d="M258.041,262.869l-38.993-24.01c-1.111-1.497,18.509-30.325,20.678-30.896,5.864-1.542,15.93,19.639,17.375,24.356,3.158,10.314,3.701,20.105.941,30.549Z" fill="#fdfdfd"/>
            <path d="M342.382,217.558c.371.769,4.503,3.62,3.66,6.31-2.743.286-4.976-1.625-7.576-1.914-9.142-1.016-18.892,4.3-18.462-8.551.154-4.607,7.84-16.526,12.44-15.443,1.728.407,7.615,12.74,8.823,15.211.673,1.376.456,3.021,1.115,4.386Z" fill="#fdfdfd"/>
          </g>
        </g>
        <g>
          <path d="M145.047,427.874c1.821.361,8.046-.608,8.856.159.341.323.117,2.217,1.16,3.29.888.914,2.466,1.329,3.531,2.504,8.143,8.983,14.689,19.568,23.453,28.047v-34h10v52c-3.141-.249-6.858.848-9.571-.929l-27.429-33.071v34h-10v-52Z" fill="#4a4a4a"/>
          <path d="M520.355,453.955c0,15.331-12.429,27.76-27.76,27.76s-27.76-12.429-27.76-27.76,12.429-27.76,27.76-27.76,27.76,12.429,27.76,27.76ZM488.783,436.118c-18.929,3.222-18.149,32.812-.178,35.691,29.225,4.682,28.905-40.581.178-35.691Z" fill="#4a4a4a"/>
          <path d="M244.047,427.874c-.294,2.448,1.145,7.948-1.64,8.86-5.177,1.697-21.292-.299-27.353-.857l-.007,12.996h24.5c1.921,0,1.599,6.39,1.505,8.005l-26.005.995v14h30v8h-40v-52h39Z" fill="#4a4a4a"/>
          <path d="M322.047,427.874v25c1.763.345,2.45-.936,3.536-1.975,7.478-7.152,13.819-15.5,21.482-22.507l10.977-.513c1.326,1.178-9.28,10.615-10.509,11.981-3.183,3.538-6.513,7.505-9.343,11.339.218,2.52,17.223,20.934,19.895,25.136.783,1.231,1.269,1.965.957,3.534l-11.005-.486-16.568-20.582c-9.826,3.128-9.806,12.275-8.418,21.075l-11.005-.003v-50.5c0-2.194,8.126-1.429,10-1.5Z" fill="#4a4a4a"/>
          <path d="M132.918,431c1.312,2.086-2.278,6.411-1.881,8.877-3.788-.972-6.671-3.151-10.749-3.74-5.904-.853-18.987-.748-14.717,8.72,2.887,6.4,30.059,3.319,30.564,19.51.539,17.314-21.491,18.539-33.889,14.809-8.64-2.6-10.851-3.871-6.154-12.265,2.996-.396,4.249,2.147,7.15,3.268,5.123,1.979,23.023,5.102,22.704-3.799-.346-9.653-22.937-7.21-28.924-14.981-9.686-12.571,3.792-23.635,16.537-24.504,3.443-.235,17.753,1.55,19.359,4.106Z" fill="#4a4a4a"/>
          <path d="M399.955,438.783c-1.217.876-26.825-9.309-26.006,3.59.428,6.743,15.938,7.511,21.787,10.312,17.194,8.233,8.653,26.959-9.15,28.221-8.607.61-29.402-1.411-21.524-14.029.8-.586,8.068,4.076,9.973,4.509,6.205,1.41,21.941,2.282,18.826-7.815-2.027-6.569-28.406-3.269-30.598-18.455-1.898-13.15,12.155-18.936,23.267-18.225,2.95.189,14.667,2.547,15.385,5.587.1.423-1.692,6.113-1.96,6.306Z" fill="#4a4a4a"/>
          <path d="M568.047,427.874v9h-17v43h-10v-43h-16.5c-2.084,0-1.501-7.333-1.5-9h45Z" fill="#4a4a4a"/>
          <path d="M488.783,436.118c28.727-4.89,29.047,40.374-.178,35.691-17.971-2.879-18.751-32.469.178-35.691Z" fill="#fdfdfd"/>
          <g>
            <path d="M306.042,479.869c-2.406-.497-9.306.799-10.836-.158-.725-.454-3.439-9.322-5.144-10.351-.497-.3-10.142-1.475-11.514-1.485-4.358-.032-10.439,1.882-15.336,1.169-1.136,1.624-3.5,10.152-4.328,10.663-1.506.929-7.551-.3-9.833.163l22.133-51.86c2.892.069,9.509-1.1,11.394.835l23.465,51.025ZM286.047,459.874l-9.5-22.01-9.5,22.01h19Z" fill="#4a4a4a"/>
            <polygon points="286.047 459.874 267.047 459.874 276.547 437.864 286.047 459.874" fill="#fdfdfd"/>
          </g>
          <g>
            <path d="M442.547,427.874c17.572,2.748,21.857,26.988,5.192,34.196-1.223.529-7.546,2.804-8.192,2.804h-15.5v15l-10.005.005c1.457-15.645-2.852-33.166-1.046-48.556.118-1.007.456-3.449,1.551-3.449,7.959,0,20.779-1.129,28,0ZM424.547,455.874c2.423.749,13.364,0,17,0,2.609,0,6.354-5.696,6.56-8.513.932-12.783-15.311-11.791-24.065-11.491,1.272,3.519-3.265,18.84.505,20.005Z" fill="#4a4a4a"/>
            <path d="M424.547,455.874c-3.77-1.165.767-16.486-.505-20.005,8.753-.299,24.997-1.291,24.065,11.491-.205,2.818-3.951,8.513-6.56,8.513-3.636,0-14.577.749-17,0Z" fill="#fdfdfd"/>
          </g>
        </g>
      </g>
    </g>
  </g>
</svg>